<svg width="75" height="75" viewBox="0 0 75 75" fill="none" xmlns="http://www.w3.org/2000/svg">
<g id="add_circle_FILL0_wght400_GRAD0_opsz48 1">
<path id="Vector" d="M35.3906 53.125H40.0781V40.1562H53.125V35.4688H40.0781V21.875H35.3906V35.4688H21.875V40.1562H35.3906V53.125ZM37.5208 68.75C33.2117 68.75 29.1622 67.9297 25.3723 66.2891C21.5824 64.6484 18.2682 62.4089 15.4297 59.5703C12.5911 56.7318 10.3516 53.4156 8.71094 49.6218C7.07031 45.828 6.25 41.7744 6.25 37.4609C6.25 33.1474 7.07031 29.0938 8.71094 25.3001C10.3516 21.5063 12.5911 18.2031 15.4297 15.3906C18.2682 12.5781 21.5844 10.3516 25.3782 8.71094C29.172 7.07031 33.2256 6.25 37.5391 6.25C41.8526 6.25 45.9062 7.07031 49.6999 8.71094C53.4937 10.3516 56.7969 12.5781 59.6094 15.3906C62.4219 18.2031 64.6484 21.5104 66.2891 25.3125C67.9297 29.1146 68.75 33.1702 68.75 37.4792C68.75 41.7883 67.9297 45.8378 66.2891 49.6277C64.6484 53.4176 62.4219 56.727 59.6094 59.5559C56.7969 62.3849 53.4896 64.6245 49.6875 66.2747C45.8854 67.9249 41.8298 68.75 37.5208 68.75ZM37.5391 64.0625C44.9089 64.0625 51.1719 61.4714 56.3281 56.2891C61.4844 51.1068 64.0625 44.8307 64.0625 37.4609C64.0625 30.0911 61.4893 23.8281 56.3428 18.6719C51.1963 13.5156 44.9154 10.9375 37.5 10.9375C30.1562 10.9375 23.8932 13.5107 18.7109 18.6572C13.5286 23.8037 10.9375 30.0846 10.9375 37.5C10.9375 44.8438 13.5286 51.1068 18.7109 56.2891C23.8932 61.4714 30.1693 64.0625 37.5391 64.0625Z" fill="#E66E00"/>
</g>
</svg>
