<svg width="37" height="37" viewBox="0 0 37 37" fill="none" xmlns="http://www.w3.org/2000/svg">
<g id="brush_FILL0_wght400_GRAD0_opsz48 1">
<path id="Vector" d="M8.28646 32.4906C7.41709 32.4906 6.55739 32.3429 5.70737 32.0474C4.85732 31.7519 4.11111 31.2701 3.46875 30.6021C4.36806 30.2937 5.01042 29.8441 5.39583 29.2531C5.78125 28.6621 5.97396 27.8656 5.97396 26.8635C5.97396 25.7394 6.36806 24.7839 7.15626 23.997C7.94449 23.2101 8.90161 22.8167 10.0276 22.8167C11.1536 22.8167 12.1085 23.2101 12.8922 23.997C13.6759 24.7839 14.0677 25.7394 14.0677 26.8635C14.0677 28.508 13.5089 29.8569 12.3911 30.9104C11.2734 31.9639 9.90521 32.4906 8.28646 32.4906ZM8.28646 30.1781C9.18576 30.1781 9.98872 29.8569 10.6953 29.2146C11.4019 28.5722 11.7552 27.7885 11.7552 26.8635C11.7552 26.3496 11.5946 25.9321 11.2734 25.6109C10.9523 25.2898 10.5347 25.1292 10.0208 25.1292C9.50694 25.1292 9.08941 25.2898 8.76823 25.6109C8.44705 25.9321 8.28646 26.3496 8.28646 26.8635C8.28646 27.8656 8.17726 28.6043 7.95885 29.0797C7.74045 29.555 7.33576 29.8441 6.74479 29.9469C6.89896 29.9726 7.1559 30.0175 7.51562 30.0818C7.87535 30.146 8.13229 30.1781 8.28646 30.1781ZM17.151 23.3562L13.6823 19.6948L28.174 5.20312C28.5337 4.8434 28.9319 4.65712 29.3687 4.64427C29.8056 4.63142 30.2167 4.81771 30.6021 5.20312L31.7198 6.32083C32.1052 6.70625 32.2915 7.12378 32.2786 7.57343C32.2658 8.02309 32.0795 8.42777 31.7198 8.7875L17.151 23.3562Z" fill="#E66E00"/>
</g>
</svg>
