<svg width="192" height="192" viewBox="0 0 192 192" fill="none" xmlns="http://www.w3.org/2000/svg">
<g id="lightbulb_FILL0_wght400_GRAD0_opsz48 1">
<path id="Vector" d="M96 176C91.4667 176 87.6333 174.433 84.5 171.3C81.3667 168.167 79.8 164.333 79.8 159.8H112.2C112.2 164.333 110.633 168.167 107.5 171.3C104.367 174.433 100.533 176 96 176ZM63.6 147.4V135.4H128.4V147.4H63.6ZM64.6 123.2C55.8 117.467 48.8333 110.3 43.7 101.7C38.5667 93.1 36 83.4 36 72.6C36 56.3333 41.9333 42.2667 53.8 30.4C65.6667 18.5333 79.7333 12.6 96 12.6C112.267 12.6 126.333 18.5333 138.2 30.4C150.067 42.2667 156 56.3333 156 72.6C156 83.4 153.467 93.1 148.4 101.7C143.333 110.3 136.333 117.467 127.4 123.2H64.6ZM69 111.2H123.2C129.6 106.933 134.667 101.4 138.4 94.6C142.133 87.8 144 80.4667 144 72.6C144 59.4 139.3 48.1 129.9 38.7C120.5 29.3 109.2 24.6 96 24.6C82.8 24.6 71.5 29.3 62.1 38.7C52.7 48.1 48 59.4 48 72.6C48 80.4667 49.8667 87.8 53.6 94.6C57.3333 101.4 62.4667 106.933 69 111.2Z" fill="#E66E00"/>
</g>
</svg>
