<svg width="37" height="37" viewBox="0 0 37 37" fill="none" xmlns="http://www.w3.org/2000/svg">
<g id="photo_library_FILL0_wght400_GRAD0_opsz48 1">
<path id="Vector" d="M13.2969 22.4698H28.3667L23.4719 15.8792L19.5021 21.0823L16.8813 17.7292L13.2969 22.4698ZM10.0208 29.2917C9.40418 29.2917 8.86459 29.0604 8.40209 28.5979C7.93959 28.1354 7.70834 27.5958 7.70834 26.9792V5.39584C7.70834 4.77918 7.93959 4.23959 8.40209 3.77709C8.86459 3.31459 9.40418 3.08334 10.0208 3.08334H31.6042C32.2208 3.08334 32.7604 3.31459 33.2229 3.77709C33.6854 4.23959 33.9167 4.77918 33.9167 5.39584V26.9792C33.9167 27.5958 33.6854 28.1354 33.2229 28.5979C32.7604 29.0604 32.2208 29.2917 31.6042 29.2917H10.0208ZM10.0208 26.9792H31.6042V5.39584H10.0208V26.9792ZM5.39584 33.9167C4.77918 33.9167 4.23959 33.6854 3.77709 33.2229C3.31459 32.7604 3.08334 32.2208 3.08334 31.6042V7.70834H5.39584V31.6042H29.2917V33.9167H5.39584Z" fill="#E66E00"/>
</g>
</svg>
