<svg width="100" height="100" viewBox="0 0 100 100" fill="none" xmlns="http://www.w3.org/2000/svg">
<g id="search_FILL0_wght400_GRAD0_opsz48 1">
<path id="Vector" d="M82.9167 87.3958L55.5208 60C53.4375 61.8056 51.0084 63.2118 48.2334 64.2187C45.4585 65.2257 42.5057 65.7292 39.375 65.7292C31.8637 65.7292 25.5068 63.125 20.3041 57.9167C15.1014 52.7083 12.5 46.4236 12.5 39.0625C12.5 31.7014 15.1042 25.4167 20.3125 20.2083C25.5208 15 31.8229 12.3958 39.2187 12.3958C46.6146 12.3958 52.8993 15 58.0729 20.2083C63.2465 25.4167 65.8333 31.7066 65.8333 39.0781C65.8333 42.0538 65.3472 44.9306 64.375 47.7083C63.4028 50.4861 61.9444 53.0903 60 55.5208L87.5 82.8125L82.9167 87.3958ZM39.2708 59.4792C44.9132 59.4792 49.7092 57.4826 53.6589 53.4896C57.6085 49.4965 59.5833 44.6875 59.5833 39.0625C59.5833 33.4375 57.6085 28.6285 53.6589 24.6354C49.7092 20.6424 44.9132 18.6458 39.2708 18.6458C33.5706 18.6458 28.7254 20.6424 24.7352 24.6354C20.7451 28.6285 18.75 33.4375 18.75 39.0625C18.75 44.6875 20.7451 49.4965 24.7352 53.4896C28.7254 57.4826 33.5706 59.4792 39.2708 59.4792Z" fill="#E56E00"/>
</g>
</svg>
